<svg width="224" height="234" viewBox="0 0 224 234" fill="none" xmlns="http://www.w3.org/2000/svg">
<path fill-rule="evenodd" clip-rule="evenodd" d="M112 213.543C162.575 213.543 203.575 172.544 203.575 121.968C203.575 71.3926 162.575 30.3931 112 30.3931C61.4243 30.3931 20.4248 71.3926 20.4248 121.968C20.4248 172.544 61.4243 213.543 112 213.543Z" stroke="#3AD29F" stroke-width="0.305962" stroke-dasharray="1.84 1.84"/>
<path fill-rule="evenodd" clip-rule="evenodd" d="M112 232.967C173.304 232.967 223 183.271 223 121.967C223 60.6637 173.304 10.9673 112 10.9673C50.6964 10.9673 1 60.6637 1 121.967C1 183.271 50.6964 232.967 112 232.967Z" stroke="#3AD29F" stroke-width="0.305962" stroke-dasharray="1.84 1.84"/>
<path d="M186.29 157.33C186.293 144.407 176.461 133.604 163.595 132.394C150.728 131.184 139.054 139.964 136.648 152.662L59.6914 150.574L60.5362 163.796C60.5362 163.796 49.5627 189.116 107.236 195.862V221.454H173.91V178.904C181.572 174.418 186.283 166.208 186.29 157.33Z" fill="url(#paint0_linear_4201_9487)"/>
<path d="M63.1786 164.351C63.1786 164.351 52.6706 188.599 107.902 195.067V219.586H171.755V154.654L62.3584 151.688L63.1786 164.351Z" fill="#FFCBB4"/>
<path d="M95.0908 63.165C91.6248 68.6343 84.3925 70.2778 78.9033 66.8434L44.6197 44.2519C39.1504 40.7859 37.507 33.5536 40.9413 28.0644C44.4067 22.6026 51.6298 20.96 57.1164 24.3859L91.4 46.9775C96.8736 50.4395 98.5228 57.6726 95.0908 63.165Z" fill="url(#paint1_linear_4201_9487)"/>
<path d="M93.1916 61.9316C89.9699 67.0153 83.2474 68.5431 78.1449 65.351L46.2663 44.335C41.1825 41.1133 39.6548 34.3907 42.8469 29.2883C46.0686 24.2045 52.7911 22.6768 57.8936 25.8689L89.766 46.8726C94.8595 50.0927 96.3909 56.8249 93.1916 61.9316Z" fill="#FFCBB4"/>
<path d="M159.634 182.135C172.878 182.135 183.613 171.4 183.613 158.156C183.613 144.913 172.878 134.177 159.634 134.177C146.391 134.177 135.655 144.913 135.655 158.156C135.655 171.4 146.391 182.135 159.634 182.135Z" fill="#FFCBB4"/>
<path d="M155.318 0H63.4592C61.3732 0 59.6821 1.69106 59.6821 3.77708V175.661C59.6821 177.747 61.3732 179.438 63.4592 179.438H155.318C157.404 179.438 159.095 177.747 159.095 175.661V3.77708C159.095 1.69106 157.404 0 155.318 0Z" fill="url(#paint2_linear_4201_9487)"/>
<path d="M153.542 2.42676H65.2291C62.9064 2.42676 61.0234 4.3097 61.0234 6.63242V172.812C61.0234 175.135 62.9064 177.017 65.2291 177.017H153.542C155.865 177.017 157.748 175.135 157.748 172.812V6.63242C157.748 4.3097 155.865 2.42676 153.542 2.42676Z" fill="white"/>
<path d="M133.685 6.80518C133.107 10.631 129.824 13.4631 125.955 13.4744H92.5502C88.6821 13.4616 85.4014 10.6298 84.8234 6.80518H67.125C66.1506 6.80518 65.2157 7.19089 64.5264 7.87966C63.837 8.56843 63.4497 9.50295 63.4497 10.4774V168.961C63.4497 169.935 63.8354 170.87 64.5242 171.559C65.213 172.249 66.1475 172.636 67.122 172.636H151.648C152.623 172.636 153.558 172.25 154.247 171.562C154.936 170.873 155.324 169.938 155.324 168.964V10.4805C155.324 9.50603 154.938 8.57119 154.249 7.88184C153.561 7.1925 152.626 6.80518 151.652 6.80518H133.685Z" fill="#E9ECFF"/>
<path d="M119.684 8.89258H99.3613C99.0207 8.89258 98.7446 9.16867 98.7446 9.50924V9.62333C98.7446 9.9639 99.0207 10.24 99.3613 10.24H119.684C120.024 10.24 120.3 9.9639 120.3 9.62333V9.50924C120.3 9.16867 120.024 8.89258 119.684 8.89258Z" fill="#DBDBDB"/>
<path d="M124.879 10.4363C125.434 10.4363 125.884 9.98655 125.884 9.43177C125.884 8.87699 125.434 8.42725 124.879 8.42725C124.324 8.42725 123.875 8.87699 123.875 9.43177C123.875 9.98655 124.324 10.4363 124.879 10.4363Z" fill="#DBDBDB"/>
<path d="M175.134 162.387C168.175 163.996 163.399 159.458 161.79 152.502L145.799 93.1258C144.208 86.1428 148.554 79.1854 155.527 77.5519C162.51 75.9609 169.468 80.3066 171.101 87.2798L184.15 148.188C185.759 155.147 182.09 160.777 175.134 162.387Z" fill="url(#paint3_linear_4201_9487)"/>
<path d="M169.307 88.733C167.95 82.8612 162.091 79.201 156.219 80.5577C150.347 81.9143 146.687 87.7742 148.043 93.646L162.747 157.284C164.104 163.155 169.964 166.816 175.835 165.459C181.707 164.102 185.367 158.242 184.011 152.371L169.307 88.733Z" fill="#FFCBB4"/>
<path d="M183.512 211.562H92.2451V232.838H183.512V211.562Z" fill="url(#paint4_linear_4201_9487)"/>
<path d="M181.045 214.03H94.7119V230.68H181.045V214.03Z" fill="#4D8AF0"/>
<path d="M81.7838 126.86C78.3599 132.265 71.2141 133.889 65.7905 130.496L42.7981 115.618C37.3938 112.195 35.7696 105.049 39.1628 99.6252C42.5867 94.221 49.7325 92.5967 55.1561 95.99L78.1485 110.867C83.5528 114.291 85.177 121.437 81.7838 126.86Z" fill="url(#paint5_linear_4201_9487)"/>
<path d="M76.0113 158.351C72.5569 163.805 65.346 165.444 59.8731 162.02L45.6312 151.636C40.1774 148.181 38.5379 140.97 41.962 135.497C45.4164 130.044 52.6273 128.404 58.1002 131.828L72.3421 142.216C77.7941 145.67 79.4333 152.879 76.0113 158.351Z" fill="url(#paint6_linear_4201_9487)"/>
<g opacity="0.5">
<path d="M109.385 117.453C124.701 117.453 137.117 105.037 137.117 89.7217C137.117 74.4061 124.701 61.9902 109.385 61.9902C94.0696 61.9902 81.6538 74.4061 81.6538 89.7217C81.6538 105.037 94.0696 117.453 109.385 117.453Z" fill="url(#paint7_linear_4201_9487)"/>
</g>
<path d="M109.385 115.822C123.8 115.822 135.486 104.136 135.486 89.7215C135.486 75.3067 123.8 63.6211 109.385 63.6211C94.9702 63.6211 83.2847 75.3067 83.2847 89.7215C83.2847 104.136 94.9702 115.822 109.385 115.822Z" fill="#69F0AE"/>
<path d="M98.0573 86.2379L107.844 95.2104L121.71 74.8203L126.606 78.8996L107.844 103.369L93.978 87.8721L98.0573 86.2379Z" fill="white"/>
<path d="M74.8611 157.577C71.6394 162.66 64.9169 164.188 59.8145 160.996L46.5315 151.327C41.4477 148.105 39.92 141.382 43.1121 136.28C46.3338 131.196 53.0563 129.668 58.1587 132.861L71.4386 142.548C76.5123 145.768 78.0401 152.477 74.8611 157.577Z" fill="#FFCBB4"/>
<path d="M80.5189 126.044C77.2972 131.128 70.5747 132.655 65.4722 129.463L43.8396 115.465C38.7558 112.243 37.2281 105.521 40.4202 100.418C43.6419 95.3344 50.3644 93.8067 55.4668 96.9988L77.0995 110.997C82.1833 114.219 83.711 120.941 80.5189 126.044Z" fill="#FFCBB4"/>
<path d="M87.7284 95.5184C84.2876 100.946 77.1096 102.577 71.6611 99.1691L42.5236 80.1973C37.0957 76.7566 35.4647 69.5785 38.873 64.1301C42.3137 58.7021 49.4918 57.0712 54.9402 60.4794L84.0777 79.4511C89.5057 82.8919 91.1366 90.07 87.7284 95.5184Z" fill="url(#paint8_linear_4201_9487)"/>
<path d="M86.1798 94.532C82.958 99.6158 76.2355 101.143 71.1331 97.9514L43.8425 80.1821C38.7587 76.9604 37.231 70.2379 40.4231 65.1355C43.6448 60.0517 50.3673 58.524 55.4698 61.7161L82.7573 79.4853C87.8421 82.706 89.3713 89.4287 86.1798 94.532Z" fill="#FFCBB4"/>
<defs>
<linearGradient id="paint0_linear_4201_9487" x1="122.995" y1="221.469" x2="122.995" y2="132.287" gradientUnits="userSpaceOnUse">
<stop stop-color="#808080" stop-opacity="0.25"/>
<stop offset="0.54" stop-color="#808080" stop-opacity="0.12"/>
<stop offset="1" stop-color="#808080" stop-opacity="0.1"/>
</linearGradient>
<linearGradient id="paint1_linear_4201_9487" x1="68.0129" y1="68.641" x2="68.0129" y2="22.5945" gradientUnits="userSpaceOnUse">
<stop stop-color="#808080" stop-opacity="0.25"/>
<stop offset="0.54" stop-color="#808080" stop-opacity="0.12"/>
<stop offset="1" stop-color="#808080" stop-opacity="0.1"/>
</linearGradient>
<linearGradient id="paint2_linear_4201_9487" x1="109.389" y1="179.435" x2="109.389" y2="-0.00308025" gradientUnits="userSpaceOnUse">
<stop stop-color="#808080" stop-opacity="0.25"/>
<stop offset="0.54" stop-color="#808080" stop-opacity="0.12"/>
<stop offset="1" stop-color="#808080" stop-opacity="0.1"/>
</linearGradient>
<linearGradient id="paint3_linear_4201_9487" x1="164.996" y1="162.707" x2="164.996" y2="77.2189" gradientUnits="userSpaceOnUse">
<stop stop-color="#808080" stop-opacity="0.25"/>
<stop offset="0.54" stop-color="#808080" stop-opacity="0.12"/>
<stop offset="1" stop-color="#808080" stop-opacity="0.1"/>
</linearGradient>
<linearGradient id="paint4_linear_4201_9487" x1="137.885" y1="232.831" x2="137.885" y2="211.556" gradientUnits="userSpaceOnUse">
<stop stop-color="#808080" stop-opacity="0.25"/>
<stop offset="0.54" stop-color="#808080" stop-opacity="0.12"/>
<stop offset="1" stop-color="#808080" stop-opacity="0.1"/>
</linearGradient>
<linearGradient id="paint5_linear_4201_9487" x1="60.4687" y1="132.268" x2="60.4687" y2="94.2202" gradientUnits="userSpaceOnUse">
<stop stop-color="#808080" stop-opacity="0.25"/>
<stop offset="0.54" stop-color="#808080" stop-opacity="0.12"/>
<stop offset="1" stop-color="#808080" stop-opacity="0.1"/>
</linearGradient>
<linearGradient id="paint6_linear_4201_9487" x1="58.9882" y1="163.809" x2="58.9882" y2="130.037" gradientUnits="userSpaceOnUse">
<stop stop-color="#808080" stop-opacity="0.25"/>
<stop offset="0.54" stop-color="#808080" stop-opacity="0.12"/>
<stop offset="1" stop-color="#808080" stop-opacity="0.1"/>
</linearGradient>
<linearGradient id="paint7_linear_4201_9487" x1="109.385" y1="117.453" x2="109.385" y2="61.9871" gradientUnits="userSpaceOnUse">
<stop stop-color="#808080" stop-opacity="0.25"/>
<stop offset="0.54" stop-color="#808080" stop-opacity="0.12"/>
<stop offset="1" stop-color="#808080" stop-opacity="0.1"/>
</linearGradient>
<linearGradient id="paint8_linear_4201_9487" x1="63.2991" y1="100.96" x2="63.2991" y2="58.7096" gradientUnits="userSpaceOnUse">
<stop stop-color="#808080" stop-opacity="0.25"/>
<stop offset="0.54" stop-color="#808080" stop-opacity="0.12"/>
<stop offset="1" stop-color="#808080" stop-opacity="0.1"/>
</linearGradient>
</defs>
</svg>
